name rise44.8762peak52.3436fall86.788.mot
datacolumns 19
datarows 11
range 4.48831100000000 4.50498500000000
endheader
time	ground_force1_vx	ground_force1_vy	ground_force1_vz	ground_force1_px	ground_force1_py	ground_force1_pz	ground_force2_vx	ground_force2_vy	ground_force2_vz	ground_force2_px	ground_force2_py	ground_force2_pz	ground_torque1_x	ground_torque1_y	ground_torque1_z	ground_torque2_x	ground_torque2_y	ground_torque2_z	
4.48831100000000	-8.16331900000000	41.21323200000000	-8.31868300000000	0.24273600000000	0.00000000000000	0.12077500000000	-35.48853600000000	786.74046399999997	-60.77689900000000	0.08881800000000	0.00000000000000	-0.08512800000000	0.00000000000000	-3.52795400000000	0.00000000000000	0.00000000000000	-16.50375700000000	0.00000000000000	
4.48998400000000	-9.02778700000000	48.52592800000000	-9.33096400000000	0.24856900000000	0.00000000000000	0.12159400000000	-36.04119500000000	784.42189299999995	-60.55573100000000	0.08806900000000	0.00000000000000	-0.08503400000000	0.00000000000000	-4.03120300000000	0.00000000000000	0.00000000000000	-16.43801500000000	0.00000000000000	
4.49164800000000	-9.75630600000000	55.98870500000000	-10.24138500000000	0.25375600000000	0.00000000000000	0.12233100000000	-36.60316700000000	781.94786399999998	-60.30476600000000	0.08733000000000	0.00000000000000	-0.08493500000000	0.00000000000000	-4.50328000000000	0.00000000000000	0.00000000000000	-16.37230500000000	0.00000000000000	
4.49333300000000	-10.32607500000000	63.51002200000000	-11.02746700000000	0.25840500000000	0.00000000000000	0.12300000000000	-37.17395100000000	779.31506200000001	-60.02365500000000	0.08660100000000	0.00000000000000	-0.08483300000000	0.00000000000000	-4.93305500000000	0.00000000000000	0.00000000000000	-16.30664300000000	0.00000000000000	
4.49498600000000	-10.72270700000000	71.01921100000000	-11.67428700000000	0.26260000000000	0.00000000000000	0.12361200000000	-37.75296100000000	776.52018499999997	-59.71209300000000	0.08588300000000	0.00000000000000	-0.08472700000000	0.00000000000000	-5.31259700000000	0.00000000000000	0.00000000000000	-16.24103000000000	0.00000000000000	
4.49664900000000	-10.94019400000000	78.46885399999999	-12.17456300000000	0.26640900000000	0.00000000000000	0.12417600000000	-38.33952100000000	773.55994799999996	-59.36982300000000	0.08517400000000	0.00000000000000	-0.08461800000000	0.00000000000000	-5.63732900000000	0.00000000000000	0.00000000000000	-16.17545000000000	0.00000000000000	
4.49831600000000	-10.98020300000000	85.83484900000001	-12.52810100000000	0.26988500000000	0.00000000000000	0.12469800000000	-38.93286800000000	770.43109100000004	-58.99664200000000	0.08447600000000	0.00000000000000	-0.08450500000000	0.00000000000000	-5.90588100000000	0.00000000000000	0.00000000000000	-16.10987300000000	0.00000000000000	
4.49998100000000	-10.85087400000000	93.11454600000000	-12.74076000000000	0.27307200000000	0.00000000000000	0.12518500000000	-39.53214800000000	767.13038800000004	-58.59239600000000	0.08378900000000	0.00000000000000	-0.08438800000000	0.00000000000000	-6.11969900000000	0.00000000000000	0.00000000000000	-16.04425200000000	0.00000000000000	
4.50164900000000	-10.56529000000000	100.32343100000000	-12.82309300000000	0.27600700000000	0.00000000000000	0.12564100000000	-40.13641900000000	763.65466100000003	-58.15698900000000	0.08311200000000	0.00000000000000	-0.08426800000000	0.00000000000000	-6.28249500000000	0.00000000000000	0.00000000000000	-15.97852700000000	0.00000000000000	
4.50331700000000	-10.13981900000000	107.49090300000000	-12.78885200000000	0.27871900000000	0.00000000000000	0.12607000000000	-40.74465300000000	760.00078499999995	-57.69037700000000	0.08244500000000	0.00000000000000	-0.08414400000000	0.00000000000000	-6.39960300000000	0.00000000000000	0.00000000000000	-15.91261800000000	0.00000000000000	
4.50498500000000	-9.59248100000000	114.65564100000000	-12.65348300000000	0.28123300000000	0.00000000000000	0.12647600000000	-41.35573400000000	756.16570600000000	-57.19257400000000	0.08178900000000	0.00000000000000	-0.08401600000000	0.00000000000000	-6.47730500000000	0.00000000000000	0.00000000000000	-15.84643200000000	0.00000000000000	
